<svg
   width="33.043976mm"
   height="46.461754mm"
   viewBox="0 0 124.89062 175.60348"
   version="1.1"
   id="svg5"
   inkscape:version="1.2.1 (9c6d41e410, 2022-07-14)"
   sodipodi:docname="attendance75.svg"
   xmlns:inkscape="http://www.inkscape.org/namespaces/inkscape"
   xmlns:sodipodi="http://sodipodi.sourceforge.net/DTD/sodipodi-0.dtd"
   xmlns="http://www.w3.org/2000/svg"
   xmlns:svg="http://www.w3.org/2000/svg">
  <sodipodi:namedview
     id="namedview7"
     pagecolor="#ffffff"
     bordercolor="#000000"
     borderopacity="0"
     inkscape:showpageshadow="2"
     inkscape:pageopacity="0"
     inkscape:pagecheckerboard="true"
     inkscape:deskcolor="#d1d1d1"
     inkscape:document-units="px"
     showgrid="false"
     inkscape:zoom="0.5946522"
     inkscape:cx="235.43174"
     inkscape:cy="736.565"
     inkscape:window-width="1920"
     inkscape:window-height="974"
     inkscape:window-x="2293"
     inkscape:window-y="-11"
     inkscape:window-maximized="1"
     inkscape:current-layer="layer1" />
  <defs
     id="defs2" />
  <g
     inkscape:label="Layer 1"
     inkscape:groupmode="layer"
     id="layer1"
     transform="translate(494.14453,-461.47657)">
    <path
       id="rect234-8-5"
       style="opacity:1;fill:#ffffff;stroke-width:14.3622"
       d="m -321.61289,432.38459 c 1.20301,0.992 2.35746,2.04106 3.45899,3.14258 -1.10185,-1.10185 -2.2556,-2.15032 -3.45899,-3.14258 z m 7.79883,8.20508 c 1.48216,1.95574 2.8637,3.99349 4.04102,6.16601 -1.17753,-2.17299 -2.55854,-4.20987 -4.04102,-6.16601 z m -237.78711,2.14648 c -1.74884,2.59289 -3.25411,5.36486 -4.48437,8.28321 1.23028,-2.91828 2.73551,-5.69041 4.48437,-8.28321 z m 62.54297,18.74024 -5.08594,23.86133 h 61.78125 c -15.90768,19.05224 -29.28691,37.45734 -40.13867,55.21484 -10.7901,17.7574 -19.57703,35.6064 -26.35937,53.5488 h 30.52148 c 4.43935,-12.4549 9.55574,-24.4163 15.35156,-35.8847 1.22867,-2.4443 2.52412,-4.8919 3.83594,-7.3418 l -5.41797,25.164 c 7.21394,-0.9865 14.92063,-1.4785 23.1211,-1.4785 8.38545,0 14.55194,1.4176 18.49804,4.2539 3.9461,2.7746 5.91992,7.2746 5.91992,13.502 0,4.0694 -1.17263,7.8304 -3.51562,11.2832 -2.28134,3.3912 -5.54834,6.1059 -9.80274,8.1406 -4.19271,1.973 -9.28091,2.959 -15.26171,2.959 -4.43935,0 -9.52561,-0.7711 -15.25977,-2.3125 -5.67251,-1.6031 -10.11216,-3.4846 -13.31836,-5.6426 l -5.08594,23.67769 c 3.26786,1.97311 8.16936,3.57541 14.70508,4.80861 6.59737,1.2331 13.04099,1.8496 19.33008,1.8496 11.22172,0 21.0568,-1.9416 29.50391,-5.8261 8.50876,-3.8844 15.28975,-9.6494 20.3457,-17.2949 5.05591,-7.6455 7.58398,-16.0009 7.58398,-25.0645 0,-11.4684 -3.57623,-20.4381 -10.72851,-26.9121 -7.09063,-6.5358 -16.986,-9.8047 -29.6875,-9.8047 -1.91139,0 -3.97758,0.1225 -6.19727,0.36909 l 5.64258,-26.54289 h 48.74023 l 5.08594,-23.8614 h -53.00195 c 5.25339,-7.2152 11.17201,-15.12145 17.86719,-23.83394 l 3.51562,-16.83203 z m -67.02734,186.06057 c 1.23026,2.9183 2.73553,5.6903 4.48437,8.2832 -1.74886,-2.5929 -3.25409,-5.3649 -4.48437,-8.2832 z m 246.3125,4.2636 c -1.49762,2.7637 -3.25427,5.3655 -5.23828,7.7715 1.98398,-2.406 3.74068,-5.0078 5.23828,-7.7715 z m -239.02539,7.7715 c 0.9923,1.2034 2.04068,2.3572 3.14257,3.459 -1.10153,-1.1015 -2.15057,-2.256 -3.14257,-3.459 z" />
    <path
       id="rect8642"
       style="fill:#44aa00;fill-opacity:1;stroke:none;stroke-width:26.2024;stroke-linecap:round;stroke-dasharray:none;stroke-opacity:1"
       d="m -400.88867,522.32812 c -27.81874,0 -50.21485,20.70788 -50.21485,46.42969 v 6.875 c 6.20876,-0.7 12.74512,-1.07226 19.6543,-1.07226 8.38544,0 14.55195,1.41761 18.49805,4.2539 3.94609,2.7746 5.91992,7.27456 5.91992,13.50196 0,4.06939 -1.17264,7.8304 -3.51563,11.2832 -2.28133,3.3912 -5.54833,6.10593 -9.80273,8.14062 -4.19271,1.973 -9.28092,2.95899 -15.26172,2.95899 -4.43934,0 -9.52561,-0.7711 -15.25976,-2.3125 -0.0819,-0.0231 -0.15104,-0.049 -0.23243,-0.0723 v 23.48633 c 5.39049,0.8369 10.68212,1.2793 15.86329,1.2793 11.2217,0 21.0568,-1.94168 29.5039,-5.82617 8.50875,-3.8844 15.28976,-9.64943 20.34571,-17.29493 5.0559,-7.64549 7.58398,-16.00086 7.58398,-25.06445 0,-11.46839 -3.57624,-20.43811 -10.72852,-26.91211 -7.09062,-6.53579 -16.98601,-9.80469 -29.6875,-9.80469 -1.91138,0 -3.97757,0.12256 -6.19726,0.36915 l 5.64258,-26.54297 h 48.74023 l 0.7832,-3.67579 z" />
    <path
       id="path5940"
       style="fill:#44aa00;fill-opacity:1;stroke:none;stroke-width:25.8031;stroke-linecap:round;stroke-dasharray:none;stroke-opacity:1"
       d="m -489.05859,461.47656 -5.08594,23.86133 h 61.78125 c -15.90767,19.05222 -29.28692,37.45736 -40.13867,55.21484 -2.8075,4.62033 -5.47158,9.24811 -8.00782,13.88086 h 5.07422 c 25.69141,0 46.375,-21.74452 46.375,-48.7539 v -44.20313 z" />
  </g>
</svg>
