<svg xmlns="http://www.w3.org/2000/svg" width="180.041" height="180.041" viewBox="0 0 180.041 180.041">
  <g id="Group_53" data-name="Group 53" transform="translate(1.5 1.5)">
    <path id="Path_96" data-name="Path 96" d="M290.45,258.951H246.19v-59.9l38.27,20.965Z" transform="translate(-164.262 -132.809)" fill="#2f2e41"/>
    <circle id="Ellipse_20" data-name="Ellipse 20" cx="28.736" cy="28.736" r="28.736" transform="translate(61.369 58.098)" fill="#ffb6b6"/>
    <path id="Path_97" data-name="Path 97" d="M209.847,324.02l-1.3-13.123,25.924-4.847,15.308,37.272-26.623,30.616L204.19,336.666Z" transform="translate(-136.239 -204.201)" fill="#ffb6b6"/>
    <path id="Path_98" data-name="Path 98" d="M215.428,386.37c-.323.336-.652.669-.982,1q-1.567,1.567-3.2,3.045a88.544,88.544,0,0,1-114.887,3.341.167.167,0,0,1-.027-.023c-.476-.383-.945-.772-1.414-1.168.083-.24.173-.476.263-.709a40.724,40.724,0,0,1,21.042-22.373,31.26,31.26,0,0,1,5.028-1.9l7.095-12.779,5,9.318,3.681,6.869,15.1,28.177,13.028-32.44,4.037-10.057,1.035-2.576,4.922,3.83,4.659,3.624,9.381,2.07,7.611,1.681,10.336,2.283c4.18,3.4,6.722,9.88,8.143,17.927.053.286.1.576.15.865Z" transform="translate(-63.332 -236.255)" fill="#11dc83"/>
    <path id="Path_99" data-name="Path 99" d="M224.6,141.579a21.681,21.681,0,0,1,35.058-3.058c2.661,3.09,4.406,6.874,7,10.02,5.582,6.771,15.1,10.729,17.537,19.159,1.064,3.678.534,7.605,0,11.4l-1.384,9.748c-.359,2.529-.7,5.195.245,7.566,1.112,2.782,3.775,4.6,5.5,7.058a12.167,12.167,0,0,1-.5,14.243c-1.394,1.717-3.241,3.011-4.7,4.671s-2.545,3.929-1.933,6.054c1.172,4.07,7.556,5.046,8.256,9.224a5.268,5.268,0,0,1-3.05,5.246,11.12,11.12,0,0,1-6.358.744,26.12,26.12,0,0,1-20.47-37.077c2.885-6.114,8.248-11.516,8.19-18.276-.032-3.683-1.721-7.123-3.373-10.414l-10.143-20.212c-1.811-3.609-3.913-7.5-7.641-9.049-2.881-1.2-6.151-.733-9.233-.243s-6.347.967-9.237-.21-5.074-4.676-3.7-7.476" transform="translate(-149.614 -87.401)" fill="#2f2e41"/>
    <path id="Path_100" data-name="Path 100" d="M173.754,162.393c-5.552-1.827-11.78,1.106-15.538,5.582s-5.582,10.218-7.319,15.8l-2.985,9.59-2.808,9.021c-1.1,3.537-2.211,7.295-1.307,10.887.653,2.6,2.334,4.956,2.37,7.633.038,2.8-1.714,5.253-3.249,7.592s-2.976,5.117-2.245,7.817c1.113,4.107,6.823,6.365,6.51,10.608-.1,1.416-.923,2.726-.909,4.146a4.828,4.828,0,0,0,3.091,4.088,12.745,12.745,0,0,0,5.328.727,82.515,82.515,0,0,0,16.482-1.961,15.933,15.933,0,0,0,5.93-2.276,6.2,6.2,0,0,0,2.8-5.423c-.351-3.3-3.9-5.179-5.7-7.976-1.761-2.748-1.72-6.23-2.479-9.4-1.044-4.362-3.621-8.171-5.556-12.217A44.93,44.93,0,0,1,172.4,169.2a10.4,10.4,0,0,0,2.431-3.709c.4-1.435-.117-3.264-1.521-3.766" transform="translate(-93.729 -107.908)" fill="#2f2e41"/>
    <path id="Path_101" data-name="Path 101" d="M151.114,25.927A88.521,88.521,0,0,0,0,88.521a87.848,87.848,0,0,0,21.727,58.094q2.012,2.311,4.2,4.5c.343.343.689.686,1.038,1.018q1.4,1.353,2.845,2.639.879.784,1.777,1.537c.469.4.938.785,1.414,1.168a.167.167,0,0,0,.027.023,88.544,88.544,0,0,0,114.887-3.341q1.632-1.478,3.2-3.045c.329-.329.659-.662.982-1q1.348-1.388,2.622-2.822a88.525,88.525,0,0,0-3.6-121.366ZM154.5,146.465c-.832.945-1.684,1.877-2.556,2.785q-2.037,2.122-4.206,4.107c-.549.506-1.1,1-1.667,1.488a87.889,87.889,0,0,1-18.822,12.523q-3.589,1.772-7.355,3.218a87.587,87.587,0,0,1-72.963-4.692q-.794-.429-1.577-.872a87.31,87.31,0,0,1-7.96-5.095q-2.86-2.052-5.544-4.326c-.626-.529-1.245-1.065-1.854-1.614q-1.488-1.323-2.912-2.722-2.7-2.641-5.155-5.5a87.854,87.854,0,1,1,132.571.7Z" transform="translate(0 0)" fill="#3f3d56" stroke="#11dc83" stroke-width="3"/>
  </g>
</svg>
