<svg xmlns="http://www.w3.org/2000/svg" width="180.041" height="180.041" viewBox="0 0 180.041 180.041">
  <defs>
    <style>
      .cls-1 {
        fill: #ffb6b6;
      }

      .cls-2 {
        fill: #2f2e41;
      }

      .cls-3 {
        fill: #11dc83;
      }

      .cls-4 {
        fill: #3f3d56;
        stroke: #11dc83;
        stroke-width: 3px;
      }
    </style>
  </defs>
  <g id="Group_56" data-name="Group 56" transform="translate(1.5 1.5)">
    <circle id="Ellipse_21" data-name="Ellipse 21" class="cls-1" cx="31.168" cy="31.168" r="31.168" transform="translate(58.872 55.735)"/>
    <path id="Path_102" data-name="Path 102" class="cls-1" d="M210.326,325.543l-1.408-14.234,28.119-5.258,16.6,40.427-28.876,33.208L204.19,339.26Z" transform="translate(-135.43 -213.568)"/>
    <path id="Path_103" data-name="Path 103" class="cls-2" d="M188.839,218.2l6.147,1.389s-4.833-15.324-3.192-16.787,5.66.842,5.66.842l4.224,4.736,5.145-5.238s5.586-6.946,7.773-8.9-1.326-9.191-1.326-9.191,32.447-8.749,20.373-24.487c0,0-7.079-12.339-9.384-8.32s-5.054-2.364-5.054-2.364l-8.394,1.6s-16.566-9.768-32.288,11.128S188.839,218.2,188.839,218.2h0Z" transform="translate(-118.125 -101.977)"/>
    <path id="Path_104" data-name="Path 104" class="cls-3" d="M227.528,409.32a96.093,96.093,0,0,1-116.148,3.454c.029-.3.058-.6.083-.9.43-4.692.812-9.255,1.065-13.038.978-14.687,35.244-24.476,35.244-24.476s.155.155.466.426c1.891,1.66,9.569,7.681,23.032,9.363,12.005,1.5,15.958-5.62,17.152-9.031a11.057,11.057,0,0,0,.469-1.736l35.244,16.644c2.3,3.285,3.2,10.359,3.375,18.311.007.328.014.653.018.985Z" transform="translate(-79.117 -253.593)"/>
    <path id="Path_105" data-name="Path 105" class="cls-4" d="M151.114,25.927A88.521,88.521,0,0,0,0,88.521a87.849,87.849,0,0,0,21.727,58.094q2.012,2.311,4.2,4.5c.343.343.689.686,1.038,1.018q1.4,1.353,2.845,2.639.879.784,1.777,1.537c.469.4.938.785,1.414,1.168a.167.167,0,0,0,.027.023q1.982,1.6,4.037,3.075a88.594,88.594,0,0,0,107.083-3.185q1.922-1.557,3.767-3.231,1.632-1.478,3.2-3.045c.329-.329.659-.662.982-1q1.348-1.388,2.622-2.822a88.525,88.525,0,0,0-3.6-121.366ZM154.5,146.465c-.832.945-1.684,1.877-2.556,2.785q-2.037,2.121-4.206,4.107c-.549.506-1.1,1-1.667,1.488q-.958.834-1.94,1.637a87.641,87.641,0,0,1-16.882,10.885q-3.589,1.772-7.355,3.218a87.586,87.586,0,0,1-72.963-4.692q-.794-.429-1.577-.872a87.3,87.3,0,0,1-7.96-5.095l-.253-.183q-2.726-1.967-5.291-4.143c-.626-.529-1.245-1.065-1.854-1.614q-1.488-1.323-2.912-2.722-2.7-2.641-5.155-5.5a87.854,87.854,0,1,1,132.571.7Z" transform="translate(0 0)"/>
  </g>
</svg>
